<svg width="46" height="46" viewBox="0 0 46 46" fill="none" xmlns="http://www.w3.org/2000/svg">
<path d="M31.5261 32.7391C31.2386 32.7121 30.9511 32.6941 30.6546 32.6941C29.298 32.6941 28.0042 32.9996 26.8542 33.5387C25.4078 31.8316 23.539 30.493 21.3917 29.7023C21.0324 29.5676 20.655 29.4508 20.2777 29.352C19.1906 29.0555 18.0585 28.9027 16.8816 28.9027C15.3542 28.9027 13.8988 29.1633 12.5421 29.6484C7.5648 31.4094 3.97104 36.1082 3.85425 41.6695H39.621C39.621 37.0066 36.0722 33.1793 31.5261 32.7391ZM13.8179 33.2691C11.2843 34.1676 9.27183 36.1352 8.29253 38.6688C8.1937 38.9203 7.96011 39.0731 7.70855 39.0731C7.63667 39.0731 7.55581 39.0641 7.48394 39.0281C7.1605 38.9023 6.99878 38.543 7.12456 38.2195C8.22964 35.3356 10.5207 33.1074 13.4046 32.0832C13.7371 31.9664 14.0875 32.1371 14.2042 32.4695C14.321 32.802 14.1503 33.1523 13.8179 33.2691Z" fill="#EFEEEA"/>
<path d="M29.0105 21.1941C30.3852 21.1941 31.4543 21.7152 31.9215 21.9848C32.2719 20.125 32.7121 18.409 33.1164 16.9895L30.3852 15.8844L30.3672 15.8125C25.8301 19.5141 23.2516 24.3926 21.7871 28.5074C21.7961 28.5074 21.8141 28.5164 21.823 28.5254C23.8445 29.2711 25.6863 30.475 27.1867 32.0383C28.2918 31.634 29.4508 31.4363 30.6457 31.4363C30.8703 31.4363 31.1039 31.4453 31.3285 31.4633C31.2297 30.5379 31.1848 29.5855 31.1938 28.6242C31.1309 28.6422 31.068 28.6512 31.0141 28.6512C30.9152 28.6512 30.8164 28.6242 30.7176 28.5793C30.6906 28.5613 28.7859 27.5641 26.9891 27.5641C26.6387 27.5641 26.3602 27.2855 26.3602 26.9352C26.3602 26.5848 26.6387 26.3062 26.9891 26.3062C28.9117 26.3062 30.8164 27.2227 31.2297 27.4293C31.3016 26.0187 31.4633 24.6172 31.6789 23.2695C31.5891 23.2516 31.4992 23.2156 31.4184 23.1617C31.4004 23.1437 30.3852 22.452 28.9926 22.452C28.6422 22.452 28.3637 22.1734 28.3637 21.823C28.3816 21.4727 28.6691 21.1941 29.0105 21.1941Z" fill="#EFEEEA"/>
<path d="M37.1413 8.5711C37.1413 8.5711 35.0929 3.43203 28.6241 4.47422C28.6241 4.47422 31.3644 6.04649 31.0858 8.29258C31.0858 8.29258 26.7284 5.89375 22.2183 11.0059C22.2183 11.0059 30.5108 10.5656 31.4722 14.968L33.4757 15.7766C33.4757 15.7766 39.019 16.4773 39.2077 21.0594C39.2077 21.0594 41.7144 18.2652 40.6272 14.8152C40.6272 14.8152 42.8554 14.6715 43.5112 16.6121C43.5202 16.6211 45.4429 8.29258 37.1413 8.5711Z" fill="#EFEEEA"/>
<path d="M15.4442 20.9875C14.8333 20.3047 14.1595 19.6488 13.4138 19.0289L13.3958 19.0918L11.0239 20.0531C11.6438 22.2543 12.3356 25.291 12.4974 28.3277C13.9079 27.8785 15.3813 27.6449 16.8728 27.6449C17.8341 27.6449 18.7954 27.7437 19.7298 27.9324C19.5501 27.4832 19.3435 27.034 19.1278 26.5758C19.029 26.6207 18.9212 26.6477 18.8044 26.6387C18.7774 26.6387 16.3966 26.4769 15.2915 26.6297C15.2646 26.6297 15.2376 26.6387 15.2017 26.6387C14.8962 26.6387 14.6267 26.4141 14.5817 26.0996C14.5368 25.7582 14.7704 25.4348 15.1208 25.3898C16.0731 25.2551 17.7532 25.3269 18.4989 25.3629C17.888 24.2309 17.1513 23.0988 16.2888 22.0117C16.2169 22.0746 16.1271 22.1195 16.0372 22.1375C15.3274 22.3082 14.5728 22.5598 14.411 22.6855C14.2853 22.8023 14.1325 22.8652 13.9708 22.8652C13.8091 22.8652 13.6474 22.8023 13.5306 22.6766C13.288 22.434 13.288 22.0297 13.5306 21.7871C13.8899 21.4457 14.7884 21.1582 15.4442 20.9875Z" fill="#EFEEEA"/>
<path d="M4.81545 18.0586C3.926 20.8887 5.98342 23.1797 5.98342 23.1797C6.13616 19.4152 10.6823 18.8492 10.6823 18.8492L12.3264 18.1844C13.108 14.5727 19.9092 14.932 19.9092 14.932C16.2076 10.7453 12.6408 12.7039 12.6408 12.7039C12.4073 10.8711 14.6623 9.57736 14.6623 9.57736C9.36155 8.72384 7.68147 12.9375 7.68147 12.9375C0.880299 12.7039 2.46155 19.532 2.46155 19.532C2.99163 17.9418 4.81545 18.0586 4.81545 18.0586Z" fill="#EFEEEA"/>
</svg>
